<svg width="24" height="24" viewBox="0 0 24 24" fill="none" xmlns="http://www.w3.org/2000/svg">
<path d="M11.293 4.29303C11.6835 3.90251 12.3165 3.90251 12.707 4.29303C13.0974 4.68356 13.0975 5.31661 12.707 5.70709L7.41406 11.0001H19C19.5523 11.0001 20 11.4478 20 12.0001C20 12.5523 19.5523 13.0001 19 13.0001H7.41406L12.707 18.293C13.0974 18.6836 13.0975 19.3166 12.707 19.7071C12.3165 20.0975 11.6835 20.0975 11.293 19.7071L4.29297 12.7071C4.26186 12.676 4.23416 12.6424 4.20801 12.6085C4.19423 12.5906 4.18053 12.5726 4.16797 12.5538C4.14195 12.5148 4.11956 12.4742 4.09961 12.4327C4.07767 12.3871 4.05788 12.3402 4.04297 12.2911C4.03789 12.2744 4.03445 12.2572 4.03027 12.2403C4.01125 12.1633 4.00001 12.083 4 12.0001C4 11.9204 4.00974 11.8429 4.02734 11.7686C4.03221 11.7481 4.03678 11.7274 4.04297 11.7071C4.05787 11.6583 4.07777 11.6117 4.09961 11.5665C4.1197 11.5248 4.14175 11.4836 4.16797 11.4444C4.2045 11.3898 4.24669 11.3393 4.29297 11.293L11.293 4.29303Z" fill="#0D1113"/>
</svg>
