<svg width="24" height="24" viewBox="0 0 24 24" fill="none" xmlns="http://www.w3.org/2000/svg">
<path d="M11.3691 3.22462C11.7618 2.90427 12.3408 2.92686 12.707 3.29298L16.707 7.29298C17.0975 7.6835 17.0975 8.31652 16.707 8.70704C16.3164 9.09757 15.6834 9.09757 15.2929 8.70704L11.9999 5.41407L8.70696 8.70704C8.31643 9.09757 7.68342 9.09757 7.29289 8.70704C6.90237 8.31652 6.90237 7.6835 7.29289 7.29298L11.2929 3.29298L11.3691 3.22462Z" fill="#0D1113"/>
<path d="M11.3691 20.7754C11.7618 21.0957 12.3408 21.0731 12.707 20.707L16.707 16.707C17.0975 16.3165 17.0975 15.6835 16.707 15.293C16.3164 14.9024 15.6834 14.9024 15.2929 15.293L11.9999 18.5859L8.70696 15.293C8.31643 14.9024 7.68342 14.9024 7.29289 15.293C6.90237 15.6835 6.90237 16.3165 7.29289 16.707L11.2929 20.707L11.3691 20.7754Z" fill="#0D1113"/>
</svg>
