<svg width="24" height="24" viewBox="0 0 24 24" fill="none" xmlns="http://www.w3.org/2000/svg">
<path d="M16.1396 1C16.4048 1 16.6592 1.10554 16.8467 1.29297L22.707 7.15332C22.8945 7.34084 23 7.59522 23 7.86035V16.1396C23 16.4048 22.8945 16.6592 22.707 16.8467L16.8467 22.707C16.6592 22.8945 16.4048 23 16.1396 23H7.86035C7.59522 23 7.34084 22.8945 7.15332 22.707L1.29297 16.8467C1.10554 16.6592 1 16.4048 1 16.1396V7.86035L1.00488 7.76074C1.02769 7.53206 1.12908 7.31729 1.29297 7.15332L7.15332 1.29297L7.22656 1.22656C7.40448 1.08084 7.62835 1 7.86035 1H16.1396ZM3 8.27441V15.7256L8.27441 21H15.7256L21 15.7256V8.27441L15.7256 3H8.27441L3 8.27441Z" fill="#0D1113"/>
<path d="M14.2929 8.29289C14.6834 7.90237 15.3164 7.90237 15.707 8.29289C16.0975 8.68342 16.0975 9.31643 15.707 9.70696L9.70696 15.707C9.31643 16.0975 8.68342 16.0975 8.29289 15.707C7.90237 15.3164 7.90237 14.6834 8.29289 14.2929L14.2929 8.29289Z" fill="#0D1113"/>
<path d="M8.29289 8.29289C8.68342 7.90237 9.31643 7.90237 9.70696 8.29289L15.707 14.2929C16.0975 14.6834 16.0975 15.3164 15.707 15.707C15.3164 16.0975 14.6834 16.0975 14.2929 15.707L8.29289 9.70696C7.90237 9.31643 7.90237 8.68342 8.29289 8.29289Z" fill="#0D1113"/>
</svg>
