<svg width="24" height="24" viewBox="0 0 24 24" fill="none" xmlns="http://www.w3.org/2000/svg">
<path d="M20 9.4883L12 3.26662L4 9.4883V20C4 20.2652 4.10543 20.5195 4.29297 20.707C4.48051 20.8946 4.73478 21 5 21H19C19.2652 21 19.5195 20.8946 19.707 20.707C19.8946 20.5195 20 20.2652 20 20V9.4883ZM22 20C22 20.7957 21.6837 21.5585 21.1211 22.1211C20.5585 22.6837 19.7957 23 19 23H5C4.20435 23 3.44151 22.6837 2.87891 22.1211C2.3163 21.5585 2 20.7957 2 20V9.00002C2 8.69157 2.14236 8.40042 2.38574 8.21095L11.3857 1.21095C11.7469 0.930089 12.2531 0.930089 12.6143 1.21095L21.6143 8.21095C21.8576 8.40042 22 8.69157 22 9.00002V20Z" fill="#0D1113"/>
<path d="M14 22V14H10V22L9.99512 22.1025C9.94379 22.6067 9.51768 23 9 23C8.48232 23 8.05621 22.6067 8.00488 22.1025L8 22V13L8.00488 12.8975C8.05621 12.3933 8.48232 12 9 12H15C15.5523 12 16 12.4477 16 13V22C16 22.5523 15.5523 23 15 23C14.4477 23 14 22.5523 14 22Z" fill="#0D1113"/>
</svg>
