<svg width="24" height="24" viewBox="0 0 24 24" fill="none" xmlns="http://www.w3.org/2000/svg">
<path d="M11.293 4.29303C11.6835 3.90251 12.3165 3.90251 12.707 4.29303L19.707 11.293C19.7532 11.3392 19.7946 11.39 19.8311 11.4444C19.8574 11.4837 19.8802 11.5246 19.9004 11.5665C19.9222 11.6117 19.9412 11.6584 19.9561 11.7071C19.9622 11.7274 19.9668 11.748 19.9717 11.7686C19.9893 11.843 20 11.9203 20 12.0001C20 12.0831 19.9878 12.1632 19.9688 12.2403C19.9646 12.2572 19.9611 12.2743 19.9561 12.2911C19.9412 12.3401 19.9223 12.3872 19.9004 12.4327C19.8804 12.4743 19.8572 12.5146 19.8311 12.5538C19.8185 12.5726 19.8048 12.5905 19.791 12.6085C19.7649 12.6423 19.738 12.6761 19.707 12.7071L12.707 19.7071C12.3165 20.0975 11.6835 20.0975 11.293 19.7071C10.9025 19.3166 10.9025 18.6836 11.293 18.293L16.5859 13.0001H5C4.44774 13.0001 4.00004 12.5523 4 12.0001C4 11.4478 4.44772 11.0001 5 11.0001H16.5859L11.293 5.70709C10.9025 5.31658 10.9025 4.68356 11.293 4.29303Z" fill="#0D1113"/>
</svg>
