<svg width="24" height="24" viewBox="0 0 24 24" fill="none" xmlns="http://www.w3.org/2000/svg">
<g clip-path="url(#clip0_15_5473)">
<path d="M14 12C14 10.8954 13.1046 10 12 10C10.8954 10 10 10.8954 10 12C10 13.1046 10.8954 14 12 14C13.1046 14 14 13.1046 14 12ZM16 12C16 14.2091 14.2091 16 12 16C9.79086 16 8 14.2091 8 12C8 9.79086 9.79086 8 12 8C14.2091 8 16 9.79086 16 12Z" fill="#0D1113"/>
<path d="M13 3C13 2.73478 12.8946 2.48051 12.707 2.29297C12.5195 2.10543 12.2652 2 12 2C11.7348 2 11.4805 2.10543 11.293 2.29297C11.1054 2.48051 11 2.73478 11 3V3.17383C10.9979 3.69064 10.8449 4.19606 10.5596 4.62695C10.2742 5.05776 9.86851 5.39605 9.39355 5.59961C9.31053 5.63514 9.22288 5.65689 9.13379 5.66895C8.70097 5.82139 8.23507 5.86055 7.78125 5.77832C7.26025 5.68385 6.77891 5.43471 6.40039 5.06445L6.39258 5.05762V5.05664L6.33301 4.99707H6.33203C6.23917 4.90412 6.12919 4.82961 6.00781 4.7793C5.88648 4.72904 5.75633 4.70312 5.625 4.70312C5.49367 4.70312 5.36352 4.72904 5.24219 4.7793C5.12081 4.82961 5.01083 4.90412 4.91797 4.99707H4.91699C4.82402 5.08994 4.74954 5.20087 4.69922 5.32227C4.64898 5.44357 4.62305 5.57378 4.62305 5.70508C4.62306 5.8364 4.64896 5.96657 4.69922 6.08789C4.74953 6.20926 4.82404 6.31925 4.91699 6.41211V6.41309L4.97754 6.47266L4.98535 6.48047H4.98438C5.35463 6.85898 5.60378 7.34033 5.69824 7.86133C5.78881 8.36121 5.73062 8.87499 5.53711 9.34375L5.53809 9.34473C5.35454 9.84379 5.02528 10.2766 4.59277 10.5859C4.16031 10.8952 3.64479 11.0676 3.11328 11.0801H3C2.73478 11.0801 2.48051 11.1855 2.29297 11.373C2.10546 11.5606 2 11.8149 2 12.0801C2.00002 12.3453 2.10545 12.5996 2.29297 12.7871C2.4805 12.9746 2.7348 13.0801 3 13.0801H3.17383C3.69064 13.0821 4.19606 13.2352 4.62695 13.5205C5.05774 13.8059 5.39605 14.2116 5.59961 14.6865H5.59863C5.80886 15.1682 5.87206 15.7014 5.77832 16.2188C5.68385 16.7397 5.43471 17.2211 5.06445 17.5996L5.05762 17.6074H5.05664L4.99707 17.667V17.668C4.90412 17.7608 4.82961 17.8708 4.7793 17.9922C4.72904 18.1135 4.70312 18.2437 4.70312 18.375L4.70801 18.4736C4.71767 18.5711 4.74166 18.667 4.7793 18.7578C4.81705 18.8489 4.86831 18.9339 4.93066 19.0098L4.99707 19.082V19.083C5.08994 19.176 5.20087 19.2505 5.32227 19.3008C5.44357 19.351 5.57378 19.377 5.70508 19.377C5.83639 19.3769 5.96657 19.351 6.08789 19.3008C6.20927 19.2505 6.31925 19.176 6.41211 19.083H6.41309L6.47266 19.0225L6.48047 19.0146C6.85897 18.6444 7.34038 18.3962 7.86133 18.3018C8.38211 18.2074 8.9191 18.2717 9.40332 18.4854H9.40234C9.87694 18.6726 10.2886 18.9915 10.5859 19.4072C10.8952 19.8397 11.0676 20.3552 11.0801 20.8867V21C11.0801 21.2652 11.1855 21.5195 11.373 21.707C11.5606 21.8945 11.8149 22 12.0801 22C12.3453 22 12.5996 21.8946 12.7871 21.707C12.9746 21.5195 13.0801 21.2652 13.0801 21V20.8262C13.0821 20.3094 13.2352 19.8039 13.5205 19.373C13.7703 18.996 14.112 18.6903 14.5117 18.4834L14.6865 18.4004C15.1681 18.1903 15.7016 18.128 16.2188 18.2217C16.6747 18.3043 17.1004 18.5048 17.4531 18.8018L17.5996 18.9355L17.6074 18.9424V18.9434L17.667 19.0029H17.668C17.7608 19.0959 17.8708 19.1704 17.9922 19.2207C18.1135 19.271 18.2437 19.2969 18.375 19.2969C18.5063 19.2969 18.6365 19.271 18.7578 19.2207C18.8792 19.1704 18.9892 19.0959 19.082 19.0029H19.083C19.176 18.9101 19.2505 18.7991 19.3008 18.6777C19.351 18.5564 19.377 18.4262 19.377 18.2949C19.3769 18.1636 19.351 18.0334 19.3008 17.9121C19.2505 17.7907 19.176 17.6807 19.083 17.5879V17.5869L19.0225 17.5273L19.0146 17.5195V17.5186C18.6447 17.1401 18.3962 16.6594 18.3018 16.1387C18.2081 15.6215 18.2703 15.0881 18.4805 14.6064L18.5635 14.4316C18.7704 14.0319 19.0761 13.6902 19.4531 13.4404C19.884 13.1551 20.3894 13.0021 20.9062 13H21C21.2652 13 21.5195 12.8946 21.707 12.707C21.8946 12.5195 22 12.2652 22 12C22 11.7348 21.8946 11.4805 21.707 11.293C21.5195 11.1054 21.2652 11 21 11H20.8262C20.3094 10.9979 19.8039 10.8449 19.373 10.5596C18.9422 10.2742 18.604 9.86852 18.4004 9.39355C18.3648 9.31049 18.3421 9.22292 18.3301 9.13379C18.1777 8.70106 18.1395 8.23496 18.2217 7.78125C18.3161 7.26025 18.5653 6.77891 18.9355 6.40039L18.9424 6.39258H18.9434L19.0029 6.33301V6.33203C19.0959 6.23917 19.1704 6.12918 19.2207 6.00781C19.271 5.88648 19.2969 5.75633 19.2969 5.625C19.2969 5.49367 19.271 5.36352 19.2207 5.24219C19.1704 5.12082 19.0959 5.01083 19.0029 4.91797V4.91699C18.9101 4.82401 18.7991 4.74954 18.6777 4.69922C18.5564 4.64898 18.4262 4.62305 18.2949 4.62305C18.1636 4.62306 18.0334 4.64896 17.9121 4.69922C17.7907 4.74953 17.6808 4.82404 17.5879 4.91699H17.5869L17.5273 4.97754L17.5195 4.98535L17.5186 4.98438C17.1401 5.35457 16.6596 5.60379 16.1387 5.69824C15.6213 5.79197 15.0882 5.7288 14.6064 5.51855V5.51953C14.1315 5.31596 13.7258 4.97771 13.4404 4.54688C13.1551 4.11598 13.0021 3.61056 13 3.09375V3ZM15 3.08594L15.0068 3.18066C15.0209 3.27382 15.056 3.3632 15.1084 3.44238C15.1783 3.54786 15.2773 3.63074 15.3936 3.68066L15.4033 3.68555C15.5221 3.73798 15.6544 3.75363 15.7822 3.73047C15.91 3.7073 16.0282 3.6455 16.1211 3.55469L16.1729 3.50293L16.3906 3.30469C16.6183 3.1177 16.8733 2.96577 17.1465 2.85254C17.5106 2.70161 17.9007 2.62306 18.2949 2.62305C18.6891 2.62305 19.0792 2.70163 19.4434 2.85254C19.8076 3.00351 20.1394 3.224 20.418 3.50293H20.417C20.6958 3.78147 20.9174 4.11252 21.0684 4.47656C21.2192 4.84061 21.2969 5.23093 21.2969 5.625C21.2969 6.01907 21.2192 6.40939 21.0684 6.77344C20.9551 7.04658 20.8022 7.30163 20.6152 7.5293L20.417 7.74707L20.3652 7.79883L20.3027 7.87305C20.2461 7.95139 20.2078 8.04179 20.1904 8.1377C20.1673 8.26549 20.1819 8.39778 20.2344 8.5166C20.2622 8.5796 20.2836 8.64493 20.2979 8.71191C20.3454 8.78265 20.4059 8.84408 20.4775 8.8916C20.5832 8.96159 20.7072 8.99949 20.834 9H21C21.7957 9 22.5585 9.3163 23.1211 9.87891C23.6837 10.4415 24 11.2043 24 12C24 12.7957 23.6837 13.5585 23.1211 14.1211C22.5585 14.6837 21.7957 15 21 15H20.9141L20.8193 15.0068C20.7262 15.0209 20.6368 15.056 20.5576 15.1084C20.4521 15.1783 20.3693 15.2773 20.3193 15.3936L20.3145 15.4033C20.262 15.5221 20.2464 15.6544 20.2695 15.7822C20.2927 15.91 20.3545 16.0283 20.4453 16.1211L20.4971 16.1729L20.6953 16.3906C20.8823 16.6183 21.0342 16.8733 21.1475 17.1465C21.2984 17.5106 21.3769 17.9007 21.377 18.2949C21.377 18.6891 21.2984 19.0792 21.1475 19.4434C20.9965 19.8076 20.776 20.1393 20.4971 20.418L20.4961 20.417C20.2176 20.6955 19.8873 20.9175 19.5234 21.0684C19.1594 21.2192 18.7691 21.2969 18.375 21.2969C17.9809 21.2969 17.5906 21.2192 17.2266 21.0684C16.9534 20.9551 16.6984 20.8022 16.4707 20.6152L16.2529 20.417L16.2012 20.3652L16.127 20.3027C16.0486 20.2461 15.9582 20.2079 15.8623 20.1904C15.7345 20.1673 15.6022 20.1819 15.4834 20.2344L15.4736 20.2393C15.3574 20.2892 15.2584 20.3721 15.1885 20.4775C15.1185 20.5832 15.0806 20.7072 15.0801 20.834V21C15.0801 21.7956 14.7638 22.5585 14.2012 23.1211C13.6386 23.6837 12.8757 24 12.0801 24C11.2844 24 10.5216 23.6837 9.95898 23.1211C9.39638 22.5585 9.08008 21.7957 9.08008 21V20.9336L9.07031 20.8369C9.05362 20.7413 9.01594 20.6499 8.95898 20.5703C8.88322 20.4645 8.77741 20.3839 8.65527 20.3389C8.63558 20.3316 8.61588 20.3229 8.59668 20.3145C8.47787 20.262 8.34556 20.2464 8.21777 20.2695C8.08998 20.2927 7.97175 20.3545 7.87891 20.4453L7.82715 20.4971C7.5486 20.7758 7.21755 20.9966 6.85352 21.1475C6.48938 21.2984 6.09926 21.3769 5.70508 21.377C5.31092 21.377 4.92076 21.2984 4.55664 21.1475C4.19245 20.9965 3.86065 20.776 3.58203 20.4971V20.4961C3.30373 20.2178 3.08237 19.8871 2.93164 19.5234C2.7808 19.1594 2.70312 18.7691 2.70312 18.375C2.70312 17.9809 2.7808 17.5906 2.93164 17.2266C3.08255 16.8625 3.30424 16.5315 3.58301 16.2529L3.63477 16.2012C3.72553 16.1084 3.78637 15.99 3.80957 15.8623C3.83274 15.7345 3.81806 15.6022 3.76562 15.4834L3.76074 15.4736C3.71084 15.3574 3.62792 15.2584 3.52246 15.1885C3.4433 15.1361 3.35387 15.101 3.26074 15.0869L3.16602 15.0801H3C2.20437 15.0801 1.44151 14.7638 0.878906 14.2012C0.316316 13.6386 2.07095e-05 12.8757 0 12.0801C0 11.2844 0.316322 10.5216 0.878906 9.95898C1.44151 9.39638 2.20435 9.08008 3 9.08008H3.06641C3.1968 9.07703 3.3236 9.03486 3.42969 8.95898C3.53555 8.88322 3.6161 8.77741 3.66113 8.65527L3.68555 8.59668C3.73798 8.47787 3.75363 8.34556 3.73047 8.21777C3.7073 8.08998 3.6455 7.97175 3.55469 7.87891L3.50293 7.82715C3.22417 7.5486 3.00345 7.21756 2.85254 6.85352C2.70161 6.48938 2.62306 6.09926 2.62305 5.70508C2.62305 5.31092 2.70163 4.92077 2.85254 4.55664C3.00351 4.19245 3.224 3.86065 3.50293 3.58203C3.78137 3.3035 4.11274 3.08246 4.47656 2.93164C4.84062 2.7808 5.23093 2.70312 5.625 2.70312C6.01907 2.70312 6.40938 2.7808 6.77344 2.93164C7.13748 3.08255 7.46852 3.30425 7.74707 3.58301L7.79883 3.63477C7.89162 3.72553 8.00998 3.78637 8.1377 3.80957C8.26549 3.83274 8.39778 3.81806 8.5166 3.76562L8.61328 3.72852C8.64579 3.71804 8.67855 3.70826 8.71191 3.70117C8.78246 3.65369 8.84418 3.59399 8.8916 3.52246C8.96088 3.41786 8.99875 3.29532 9 3.16992V3C9 2.20435 9.3163 1.44151 9.87891 0.878906C10.4415 0.316297 11.2044 0 12 0C12.7956 0 13.5585 0.316297 14.1211 0.878906C14.6837 1.44151 15 2.20435 15 3V3.08594Z" fill="#0D1113"/>
</g>
<defs>
<clipPath id="clip0_15_5473">
<rect width="24" height="24" fill="white"/>
</clipPath>
</defs>
</svg>
