<svg width="24" height="24" viewBox="0 0 24 24" fill="none" xmlns="http://www.w3.org/2000/svg">
<path d="M9.57606 1.26479C11.8895 0.742163 14.3099 0.981205 16.4764 1.94643C16.9809 2.17118 17.2079 2.76232 16.9833 3.26674C16.7585 3.77117 16.1674 3.99827 15.663 3.77358C13.8902 2.98368 11.9096 2.78825 10.0165 3.21596C8.12345 3.64368 6.41904 4.67131 5.15809 6.14663C3.89713 7.62195 3.14711 9.46592 3.01942 11.4025C2.89181 13.3389 3.39382 15.2647 4.45008 16.8927C5.50638 18.5208 7.06032 19.7641 8.88074 20.4367C10.7012 21.1092 12.6905 21.1754 14.5516 20.6251C16.4127 20.0749 18.0458 18.9373 19.2079 17.383C20.3698 15.8287 20.9986 13.9407 20.9999 12.0001V11.0802C20.9999 10.5279 21.4476 10.0802 21.9999 10.0802C22.5522 10.0802 22.9999 10.5279 22.9999 11.0802V12.0001L22.9911 12.4445C22.9004 14.6594 22.1418 16.7992 20.8104 18.5802C19.3902 20.48 17.3937 21.8705 15.119 22.5431C12.8443 23.2157 10.4125 23.1347 8.18739 22.3126C5.9626 21.4906 4.06334 19.9712 2.77235 17.9816C1.48131 15.9917 0.867285 13.6375 1.02332 11.2706C1.17938 8.90392 2.09664 6.6509 3.63758 4.8478C5.17876 3.04462 7.26231 1.78755 9.57606 1.26479Z" fill="#0D1113"/>
<path d="M21.2928 3.29296C21.6832 2.90259 22.3163 2.90275 22.7069 3.29296C23.0973 3.68332 23.0971 4.31642 22.7069 4.70702L12.7069 14.7168C12.5194 14.9043 12.2651 15.0097 11.9999 15.0098C11.7347 15.0098 11.4804 14.9043 11.2928 14.7168L8.29283 11.7168C7.90243 11.3263 7.90235 10.6932 8.29283 10.3027C8.68333 9.91236 9.3164 9.91236 9.7069 10.3027L11.9999 12.5957L21.2928 3.29296Z" fill="#0D1113"/>
</svg>
