<svg width="24" height="24" viewBox="0 0 24 24" fill="none" xmlns="http://www.w3.org/2000/svg">
<path d="M22 4C22 3.44772 22.4477 3 23 3C23.5523 3 24 3.44772 24 4V10C24 10.5523 23.5523 11 23 11H17C16.4477 11 16 10.5523 16 10C16 9.44772 16.4477 9 17 9H22V4Z" fill="#0D1113"/>
<path d="M0 20V14C0 13.4477 0.447715 13 1 13H7C7.55228 13 8 13.4477 8 14C8 14.5523 7.55228 15 7 15H2V20C2 20.5523 1.55228 21 1 21C0.447715 21 0 20.5523 0 20Z" fill="#0D1113"/>
<path d="M0.271265 13.315C0.649404 12.9129 1.28196 12.8932 1.68435 13.271L6.32498 17.6314L6.34744 17.6529C7.30269 18.6086 8.48397 19.3076 9.78201 19.6831C11.0802 20.0586 12.4532 20.0986 13.7713 19.8003C15.0891 19.5021 16.3101 18.8748 17.3201 17.9771C18.3301 17.0794 19.0959 15.9404 19.5467 14.6665C19.7309 14.146 20.3025 13.8732 20.823 14.0572C21.3436 14.2414 21.6166 14.8129 21.4324 15.3335C20.8689 16.926 19.9108 18.35 18.6482 19.4722C17.3857 20.5943 15.8592 21.3787 14.2117 21.7515C12.5643 22.1242 10.8489 22.0734 9.22634 21.604C7.61367 21.1375 6.14508 20.2719 4.95486 19.0884L0.31521 14.729C-0.0872692 14.3509 -0.106927 13.7175 0.271265 13.315ZM9.78787 2.24858C11.4353 1.87593 13.1507 1.92672 14.7732 2.39604C16.3859 2.86255 17.8545 3.72821 19.0447 4.91166L23.6844 9.27104C24.0868 9.64923 24.1065 10.2826 23.7283 10.6851C23.3501 11.0873 22.7176 11.107 22.3152 10.729L17.6746 6.3687C17.6671 6.36163 17.6594 6.3545 17.6521 6.34721C16.6969 5.39158 15.5155 4.69343 14.2176 4.31791C12.9194 3.94242 11.5464 3.90152 10.2283 4.19975C8.9104 4.49802 7.68943 5.12533 6.67947 6.02299C5.6695 6.92068 4.90372 8.05972 4.45291 9.33354C4.26871 9.85407 3.69709 10.1269 3.17654 9.94291C2.65589 9.75867 2.38292 9.1872 2.56716 8.66655C3.13068 7.07409 4.08875 5.65008 5.35134 4.52788C6.61387 3.40584 8.14044 2.62133 9.78787 2.24858Z" fill="#0D1113"/>
</svg>
