<svg width="24" height="24" viewBox="0 0 24 24" fill="none" xmlns="http://www.w3.org/2000/svg">
<path d="M16 21V19C16 18.2044 15.6837 17.4415 15.1211 16.8789C14.6289 16.3867 13.9835 16.0829 13.2969 16.0146L13 16H5C4.20435 16 3.44152 16.3163 2.87891 16.8789C2.3163 17.4415 2 18.2044 2 19V21C2 21.5523 1.55228 22 1 22C0.447715 22 0 21.5523 0 21V19C0 17.6739 0.527162 16.4025 1.46484 15.4648C2.40253 14.5272 3.67392 14 5 14H13C14.3261 14 15.5975 14.5272 16.5352 15.4648C17.4728 16.4025 18 17.6739 18 19V21C18 21.5523 17.5523 22 17 22C16.4477 22 16 21.5523 16 21Z" fill="#0D1113"/>
<path d="M12 7C12 5.34315 10.6569 4 9 4C7.34315 4 6 5.34315 6 7C6 8.65685 7.34315 10 9 10C10.6569 10 12 8.65685 12 7ZM14 7C14 9.76142 11.7614 12 9 12C6.23858 12 4 9.76142 4 7C4 4.23858 6.23858 2 9 2C11.7614 2 14 4.23858 14 7Z" fill="#0D1113"/>
<path d="M21.9998 21V19.001L21.9891 18.753C21.9409 18.1768 21.7273 17.6248 21.3709 17.1651C20.9636 16.6397 20.3934 16.2639 19.7498 16.0977C19.2151 15.9596 18.894 15.4146 19.032 14.8799C19.1701 14.3452 19.7151 14.0241 20.2498 14.1621C21.3224 14.4391 22.2732 15.0639 22.9519 15.9395C23.6306 16.815 23.9989 17.8913 23.9998 18.9991V21C23.9997 21.5523 23.552 22 22.9998 22C22.4475 22 21.9999 21.5523 21.9998 21Z" fill="#0D1113"/>
<path d="M18.0081 7.00488C18.0081 6.33875 17.7866 5.69124 17.3782 5.16504C16.9697 4.63887 16.3975 4.26385 15.7522 4.09863C15.2172 3.96164 14.8945 3.41686 15.0315 2.88183C15.1685 2.34681 15.7133 2.02414 16.2483 2.16113C17.3238 2.43651 18.2775 3.06244 18.9582 3.93945C19.6388 4.81638 20.0081 5.89487 20.0081 7.00488L20.0041 7.21289C19.961 8.24911 19.5962 9.24826 18.9582 10.0703C18.2775 10.9473 17.3238 11.5733 16.2483 11.8486C15.7133 11.9856 15.1685 11.6629 15.0315 11.1279C14.8945 10.5929 15.2172 10.0481 15.7522 9.91113C16.3975 9.74591 16.9697 9.37088 17.3782 8.84472C17.7355 8.38438 17.9492 7.8311 17.9973 7.2539L18.0081 7.00488Z" fill="#0D1113"/>
</svg>
