<svg width="24" height="24" viewBox="0 0 24 24" fill="none" xmlns="http://www.w3.org/2000/svg">
<path d="M0 4C0 3.44772 0.447715 3 1 3C1.55228 3 2 3.44772 2 4V9H7C7.55228 9 8 9.44772 8 10C8 10.5523 7.55228 11 7 11H1C0.447715 11 0 10.5523 0 10V4Z" fill="#0D1113"/>
<path d="M10.6052 2.10697C12.7521 1.80494 14.9393 2.20845 16.8367 3.25736C18.734 4.30627 20.2387 5.94376 21.1248 7.9224C22.0108 9.90109 22.2298 12.1141 21.7488 14.2281C21.2677 16.3421 20.1128 18.2426 18.4578 19.6431C16.8028 21.0435 14.7375 21.8681 12.573 21.9927C10.4086 22.1173 8.26255 21.5348 6.45779 20.3335C4.65302 19.1322 3.28663 17.3774 2.56619 15.3326C2.38267 14.8117 2.65667 14.2407 3.17751 14.0572C3.69836 13.8737 4.26932 14.1467 4.45291 14.6675C5.0292 16.3032 6.12158 17.7074 7.56521 18.6685C9.00899 19.6295 10.7263 20.0953 12.4578 19.9956C14.1893 19.896 15.8418 19.237 17.1658 18.1167C18.4898 16.9964 19.4137 15.4758 19.7986 13.7847C20.1835 12.0935 20.0084 10.3228 19.2996 8.73978C18.5908 7.15691 17.3867 5.84747 15.8689 5.00834C14.351 4.1692 12.6011 3.84579 10.8836 4.08744C9.16627 4.3291 7.57384 5.12204 6.34646 6.3472C6.3394 6.35425 6.33224 6.36186 6.32498 6.36869L1.68435 10.729C1.28196 11.1069 0.649407 11.0872 0.271265 10.6851C-0.106927 10.2826 -0.0872693 9.64922 0.31521 9.27103L4.95486 4.91166C6.48633 3.39187 8.46819 2.40764 10.6052 2.10697Z" fill="#0D1113"/>
</svg>
