<svg width="24" height="24" viewBox="0 0 24 24" fill="none" xmlns="http://www.w3.org/2000/svg">
<path d="M19 21V19C19 18.2044 18.6837 17.4415 18.1211 16.8789C17.6289 16.3867 16.9835 16.0829 16.2969 16.0146L16 16H8C7.20435 16 6.44152 16.3163 5.87891 16.8789C5.3163 17.4415 5 18.2044 5 19V21C5 21.5523 4.55228 22 4 22C3.44772 22 3 21.5523 3 21V19C3 17.6739 3.52716 16.4025 4.46484 15.4648C5.40253 14.5272 6.67392 14 8 14H16C17.3261 14 18.5975 14.5272 19.5352 15.4648C20.4728 16.4025 21 17.6739 21 19V21C21 21.5523 20.5523 22 20 22C19.4477 22 19 21.5523 19 21Z" fill="#0D1113"/>
<path d="M15 7C15 5.34315 13.6569 4 12 4C10.3431 4 9 5.34315 9 7C9 8.65685 10.3431 10 12 10C13.6569 10 15 8.65685 15 7ZM17 7C17 9.76142 14.7614 12 12 12C9.23858 12 7 9.76142 7 7C7 4.23858 9.23858 2 12 2C14.7614 2 17 4.23858 17 7Z" fill="#0D1113"/>
</svg>
