<svg width="24" height="24" viewBox="0 0 24 24" fill="none" xmlns="http://www.w3.org/2000/svg">
<path d="M12 1.89722C12.5155 1.89726 13.0225 2.03004 13.4717 2.28296C13.8647 2.50422 14.2017 2.81107 14.459 3.17944L14.5645 3.34155L23.0381 17.4861L23.0459 17.4998C23.3079 17.9534 23.4468 18.4681 23.4483 18.9919C23.4497 19.5157 23.3131 20.0311 23.0537 20.4861C22.7943 20.941 22.4201 21.3201 21.9688 21.5857C21.5174 21.8512 21.0042 21.994 20.4805 21.9998H3.51857C2.99484 21.994 2.48169 21.8513 2.03028 21.5857C1.57891 21.3201 1.20471 20.941 0.945324 20.4861C0.685963 20.0311 0.550348 19.5157 0.551769 18.9919C0.553236 18.4681 0.692165 17.9534 0.954113 17.4998C0.956738 17.4952 0.959229 17.4906 0.961925 17.4861L9.43458 3.34155C9.70199 2.90071 10.079 2.53591 10.5283 2.28296C10.9775 2.03011 11.4845 1.89722 12 1.89722ZM12 3.89722C11.8281 3.89722 11.6586 3.94181 11.5088 4.02612C11.3592 4.11043 11.2336 4.23185 11.1445 4.37866L2.68556 18.4998C2.59832 18.6508 2.55234 18.8224 2.55177 18.9968C2.55128 19.1713 2.59633 19.3433 2.68263 19.4949C2.7691 19.6466 2.89444 19.7735 3.04493 19.8621C3.19536 19.9505 3.36654 19.9978 3.54103 19.9998H20.459C20.6335 19.9978 20.8047 19.9506 20.9551 19.8621C21.1056 19.7735 21.23 19.6466 21.3164 19.4949C21.4028 19.3432 21.4487 19.1713 21.4483 18.9968C21.4477 18.8224 21.4007 18.6508 21.3135 18.4998L12.8545 4.37866L12.7813 4.27319C12.7014 4.17313 12.6025 4.08934 12.4902 4.02612C12.3405 3.94184 12.1718 3.89726 12 3.89722Z" fill="#0D1113"/>
<path d="M11 13V9C11 8.44772 11.4477 8 12 8C12.5523 8 13 8.44772 13 9V13C13 13.5523 12.5523 14 12 14C11.4477 14 11 13.5523 11 13Z" fill="#0D1113"/>
<path d="M12.0098 16C12.5621 16 13.0098 16.4477 13.0098 17C13.0098 17.5523 12.5621 18 12.0098 18H12C11.4477 18 11 17.5523 11 17C11 16.4477 11.4477 16 12 16H12.0098Z" fill="#0D1113"/>
</svg>
